<svg xmlns="http://www.w3.org/2000/svg" viewBox="0 0 43.491 43.491"><g fill="#abcdef"><path d="M41.625,9.778c-0.378-0.23-3.22-1.961-3.22-1.961s2.054-5.874,1.875-6.688C40.104,0.316,39.232,0,39.232,0l-3.461,6.388
            l-3.557-1.546l-0.021-2.333l-1.087-0.966c0,0-0.317,2.663-0.77,3.308c-0.449,0.644-2.229,1.851-2.229,1.851l0.938,0.95
            l2.426-1.307l2.991,2.071l-3.716,6.216c0,0,0.749,0.923,1.486,0.521c0.736-0.402,4.342-5.037,4.342-5.037s3.501,1.958,3.873,2.043
            c0.372,0.087,1.291,0.574,1.757-0.54C42.67,10.506,42.003,10.008,41.625,9.778z"/><circle cx="-1058.3381" cy="373.3329" r="45.7"/><path d="M3.69,25.822c0-11.465,9.327-20.794,20.794-20.794c1.187,0,2.344,0.117,3.475,0.31l1.316-0.811l0.434-1.44
            c-1.486-0.3-3.65-0.622-5.225-0.622c-12.88,0-23.357,10.479-23.357,23.357c0,1.355,0.069,2.625,0.222,3.83
            c0.641,5.061,7.079,13.838,12.19,13.839C8.005,39.533,3.69,33.273,3.69,25.822z"/></g></svg>